<?xml version="1.0" standalone="no"?>
<!DOCTYPE svg PUBLIC "-//W3C//DTD SVG 20010904//EN"
 "http://www.w3.org/TR/2001/REC-SVG-20010904/DTD/svg10.dtd">
<svg version="1.0" xmlns="http://www.w3.org/2000/svg"
 width="260.000000pt" height="260.000000pt" viewBox="0 0 260.000000 260.000000"
 preserveAspectRatio="xMidYMid meet">
<metadata>
Created by potrace 1.11, written by Peter Selinger 2001-2013
</metadata>
<g transform="translate(0.000000,260.000000) scale(0.100000,-0.100000)"
fill="#000000" stroke="none">
<path d="M1279 2595 c-2 -2 -29 -6 -59 -10 -79 -10 -252 -69 -340 -116 -269
-145 -469 -403 -545 -703 -21 -86 -39 -203 -29 -193 3 2 6 13 8 24 19 96 90
254 159 355 118 171 295 309 487 381 58 22 106 35 205 55 53 11 288 6 347 -7
32 -7 59 -12 60 -11 7 3 159 -56 213 -83 212 -106 391 -297 486 -517 161 -377
89 -812 -185 -1114 -20 -22 -36 -41 -36 -44 0 -10 84 64 144 129 316 334 390
830 186 1244 -156 316 -430 523 -795 600 -33 7 -301 16 -306 10z"/>
<path d="M490 2330 c-240 -206 -379 -426 -455 -720 -21 -80 -25 -120 -30 -270
-7 -227 33 -408 135 -615 129 -260 332 -464 588 -590 76 -37 186 -80 232 -90
161 -36 184 -39 340 -39 172 0 259 12 393 56 496 161 850 600 901 1118 l5 55
-18 -65 c-40 -140 -78 -231 -144 -340 -176 -290 -459 -490 -799 -566 -84 -19
-349 -28 -418 -15 -25 5 -61 12 -80 15 -55 8 -217 64 -284 98 -123 62 -231
140 -331 242 -273 275 -394 628 -352 1021 8 81 49 234 86 322 48 117 150 278
222 353 29 29 53 60 48 60 -2 0 -20 -14 -39 -30z"/>
<path d="M1542 2054 c-18 -10 -45 -33 -60 -52 -23 -30 -27 -46 -27 -97 0 -52
5 -68 27 -97 52 -68 140 -87 212 -45 101 57 110 210 16 277 -43 31 -122 37
-168 14z"/>
<path d="M1068 2054 c-3 -5 -5 -116 -5 -247 0 -130 -2 -240 -5 -243 -3 -3
-114 -6 -246 -7 -180 -2 -244 -5 -254 -15 -9 -9 -13 -66 -13 -224 0 -175 2
-215 15 -230 14 -18 32 -19 258 -19 l242 0 1 -22 c1 -12 0 -37 -1 -56 -2 -31
0 -33 14 -18 9 8 26 24 39 34 34 27 102 112 135 168 120 206 100 471 -53 724
-53 88 -119 168 -127 155z"/>
<path d="M1888 1512 c-224 -330 -515 -566 -779 -632 l-47 -12 1 -145 c0 -150
6 -172 45 -174 124 -5 417 3 428 12 11 9 14 62 14 260 l0 248 247 0 c223 0
249 2 260 18 10 12 13 74 13 230 0 209 0 213 -22 227 -13 9 -45 15 -76 15 -51
-1 -53 -2 -84 -47z"/>
</g>
</svg>
